<?xml version="1.0" standalone="no"?>
<!DOCTYPE svg PUBLIC "-//W3C//DTD SVG 1.1//EN" "http://www.w3.org/Graphics/SVG/1.1/DTD/svg11.dtd" >
<svg xmlns="http://www.w3.org/2000/svg">
<metadata>
Created by FontForge 20120731 at Tue Sep 15 11:58:45 2015
 By Ads
</metadata>
<defs>
<font id="iconfont" horiz-adv-x="1024" >
  <font-face 
    font-family="iconfont"
    font-weight="500"
    font-stretch="normal"
    units-per-em="1024"
    panose-1="2 0 6 3 0 0 0 0 0 0"
    ascent="812"
    descent="-212"
    x-height="792"
    bbox="3.62791 -210 1045 810"
    underline-thickness="50"
    underline-position="-100"
    unicode-range="U+0078-E622"
  />
<missing-glyph horiz-adv-x="374" 
d="M34 0v682h272v-682h-272zM68 34h204v614h-204v-614z" />
    <glyph glyph-name=".notdef" horiz-adv-x="374" 
d="M34 0v682h272v-682h-272zM68 34h204v614h-204v-614z" />
    <glyph glyph-name=".null" horiz-adv-x="0" 
 />
    <glyph glyph-name="nonmarkingreturn" horiz-adv-x="341" 
 />
    <glyph glyph-name="x" unicode="x" horiz-adv-x="1001" 
d="M281 543q-27 -1 -53 -1h-83q-18 0 -36.5 -6t-32.5 -18.5t-23 -32t-9 -45.5v-76h912v41q0 16 -0.5 30t-0.5 18q0 13 -5 29t-17 29.5t-31.5 22.5t-49.5 9h-133v-97h-438v97zM955 310v-52q0 -23 0.5 -52t0.5 -58t-10.5 -47.5t-26 -30t-33 -16t-31.5 -4.5q-14 -1 -29.5 -0.5
t-29.5 0.5h-32l-45 128h-439l-44 -128h-29h-34q-20 0 -45 1q-25 0 -41 9.5t-25.5 23t-13.5 29.5t-4 30v167h911zM163 247q-12 0 -21 -8.5t-9 -21.5t9 -21.5t21 -8.5q13 0 22 8.5t9 21.5t-9 21.5t-22 8.5zM316 123q-8 -26 -14 -48q-5 -19 -10.5 -37t-7.5 -25t-3 -15t1 -14.5
t9.5 -10.5t21.5 -4h37h67h81h80h64h36q23 0 34 12t2 38q-5 13 -9.5 30.5t-9.5 34.5q-5 19 -11 39h-368zM336 498v228q0 11 2.5 23t10 21.5t20.5 15.5t34 6h188q31 0 51.5 -14.5t20.5 -52.5v-227h-327z" />
    <glyph glyph-name="uniE600" unicode="&#xe600;" 
d="M717 -145l35 35l-410 410l410 410l-35 35l-445 -445z" />
    <glyph glyph-name="uniE601" unicode="&#xe601;" 
d="M307 733l-35 -35l410 -410l-410 -410l35 -35l445 445z" />
    <glyph glyph-name="uniE602" unicode="&#xe602;" 
d="M513 126l-411 412h-92l503 -503l503 503h-91z" />
    <glyph glyph-name="uniE603" unicode="&#xe603;" 
d="M947 511q-3 -5 -11 -8.5t-14 -3.5l-7 -1h-70q-26 0 -39 -12q-18 -20 -19 -45q0 -327 -326 -327q-112 0 -186 37t-110.5 110.5t-36.5 185.5q0 45 6 64l-7 1v1q1 2 1 5q15 9 34.5 6t29.5 -13q6 -6 6 -13q0 -8 -3 -29t-3 -35q0 -249 249.5 -249t249.5 249v12q0 4 -0.5 11
t-1 12t-1.5 11t-3 12q0 13 13 26l6 6l6 6q7 7 32 20q20 11 49 19t48 10l19 3h44l23 -11q2 -1 3 -2q13 -13 13 -32l2 -2l3 -3q3 -3 4.5 -6t1 -7t-4.5 -8zM486 294h-64q-52 0 -90 37.5t-38 90.5v153h64v13q-4 38 24.5 67t71.5 29q28 0 50.5 -13.5t34 -35t11.5 -47.5v-13h64
v-147q0 -53 -37.5 -93.5t-90.5 -40.5zM454 652q-28 0 -49 -21t-21 -49v-7h134v7q0 28 -19.5 49t-44.5 21zM237 114q43 0 66 -23t23 -66t-23 -66.5t-66 -23.5t-66.5 23.5t-23.5 66.5t23.5 66t66.5 23zM653 114q43 0 66 -23t23 -66t-23 -66.5t-66 -23.5t-66.5 23.5t-23.5 66.5
q0 89 90 89z" />
    <glyph glyph-name="uniE604" unicode="&#xe604;" 
d="M975 715l-36 36l-427 -427l-427 427l-36 -36l427 -427l-427 -427l36 -36l427 427l427 -427l36 36l-427 427z" />
    <glyph glyph-name="uniE605" unicode="&#xe605;" 
d="M835 576l-60 63l-263 -275v0l-263 275l-60 -63l262 -276l-262 -276l60 -63l263 275v0l263 -275l60 63l-262 276z" />
    <glyph glyph-name="uniE606" unicode="&#xe606;" 
d="M673 289l-252 -253l-58 61l193 194l-201 189l62 62z" />
    <glyph glyph-name="uniE607" unicode="&#xe607;" 
d="M626 108l-180 180l182 182q5 5 7.5 11t2.5 13q0 14 -10 24t-24 10q-7 0 -13.5 -2.5t-10.5 -6.5l-206 -206q-11 -10 -11 -25v0q0 -7 3 -13.5t8 -11.5l206 -206q4 -4 10.5 -6.5t13.5 -2.5q14 0 24 10t10 24q0 16 -12 26z" />
    <glyph glyph-name="uniE608" unicode="&#xe608;" 
d="M130 355h778v-141h-778v141z" />
    <glyph glyph-name="uniE609" unicode="&#xe609;" 
d="M830 618zM605 394v290h-187v-290h-289v-187h289v-290h187v290h290v187h-290z" />
    <glyph glyph-name="uniE60A" unicode="&#xe60a;" 
d="M334 715l15 15l421 -421l-3 -3v-1l-417 -417l-15 15l406 406z" />
    <glyph glyph-name="uniE60B" unicode="&#xe60b;" 
d="M678 715l-15 15l-421 -421l3 -3v-1l417 -417l15 15l-406 406z" />
    <glyph glyph-name="uniE60C" unicode="&#xe60c;" 
d="M885 220q-23 -25 -303 -298q-4 -3 -11.5 -5.5t-27 1t-36.5 19.5q-21 20 -364 374q-19 19 -19 74v248q0 25 14 38q8 7 18.5 10t17.5 3h6h252q29 1 37 0q15 0 28 -5.5t18 -11.5l6 -6l358 -360l1 -1q2 -2 4 -4.5t4.5 -6.5t5 -8.5t4 -10t2 -11.5t-0.5 -12t-4.5 -13t-9.5 -14z
M255 610q-23 0 -39.5 -16.5t-16.5 -40t16.5 -39.5t39.5 -16q15 0 28 7.5t20.5 20t7.5 28t-7.5 28.5t-20.5 20.5t-28 7.5z" />
    <glyph glyph-name="uniE60D" unicode="&#xe60d;" horiz-adv-x="1025" 
d="M512 684q-107 0 -198.5 -46.5t-144.5 -125.5t-53 -173q0 -69 30 -131t83 -110q42 -37 283 -206v103q107 0 198.5 46t144.5 125t53 173q0 56 -20 108.5t-57 95t-85.5 74.5t-109 49.5t-124.5 17.5zM316.5 286q-21.5 0 -37 15t-15.5 36q0 10 4 19.5t11 16.5t17 11t21 4
q21 0 36.5 -15t15.5 -36t-15.5 -36t-37 -15zM513.5 286q-21.5 0 -37 15t-15.5 36t15.5 36t37.5 15q10 0 20 -4t17 -11t11 -16.5t4 -19.5q0 -21 -15.5 -36t-37 -15zM712 286q-22 0 -37.5 15t-15.5 36t15.5 36t37.5 15t37.5 -15t15.5 -36t-15.5 -36t-37.5 -15z" />
    <glyph glyph-name="uniE60E" unicode="&#xe60e;" 
d="M819 376q0 127 -90 216.5t-217 89.5t-217 -89.5t-90 -216.5q0 -73 32 -138q0 -1 1 -2t1 -2q2 -1 3 -3.5t1 -3.5q94 -180 234 -317q6 -7 15.5 -11.5t19.5 -4.5q22 0 35 16q140 137 234 317q4 3 4 7q0 2 2 4q15 30 23.5 65.5t8.5 72.5zM512 246q-28 0 -54 10.5t-45 29
t-30 44t-11 52.5q0 56 41 96t99 40t99 -40t41 -96q0 -37 -19 -68.5t-51 -49.5t-70 -18z" />
    <glyph glyph-name="uniE60F" unicode="&#xe60f;" 
d="M319 407l193 -193l193 193l22 -22l-215 -216l-215 216z" />
    <glyph glyph-name="uniE610" unicode="&#xe610;" 
d="M955 21q1 3 1.5 5.5t1 5.5t0.5 6v496q0 2 -0.5 5t-1 5.5t-1.5 5.5l-291 -249zM512 240l77 63l38 31l293 251q-9 2 -15 2h-786q-4 0 -7.5 -0.5t-7.5 -1.5l293 -251l38 -31zM905 -15q6 0 14 2l-294 282l-113 -92l-114 92l-293 -282q8 -2 14 -2h786zM68 550q-1 -4 -1.5 -8
t-0.5 -8v-496l3 -17l291 279z" />
    <glyph glyph-name="uniE611" unicode="&#xe611;" 
d="M785 -99q0 -13 -7 -24.5t-18 -18t-24 -6.5h-448q-13 0 -24 6.5t-18 18t-7 24.5v798q0 20 14.5 34.5t34.5 14.5h448q20 0 34.5 -14.5t14.5 -34.5v-798zM714 599q0 20 -11.5 34t-29.5 14h-318q-11 0 -20.5 -4t-16.5 -10.5t-11 -15.5t-4 -18v-497q0 -19 14.5 -33.5
t33.5 -14.5h314q20 0 34.5 14.5t14.5 33.5v497zM546 -47q0 14 -10 23.5t-24 9.5t-24 -9.5t-10 -23.5t10 -24t24 -10t24 10t10 24z" />
    <glyph glyph-name="uniE612" unicode="&#xe612;" 
d="M806 537l-294 -295l-294 295l-90 -90l384 -384l384 384z" />
    <glyph glyph-name="uniE613" unicode="&#xe613;" horiz-adv-x="1118" 
d="M938 1q-22 0 -41.5 8t-34 22.5t-22.5 34t-8 41.5v122q0 31 16.5 57t43.5 39v10h3l-2 8q-1 4 -1 7q0 19 13.5 32.5t32.5 13.5t32.5 -13.5t13.5 -32.5q0 -3 -1 -7l-2 -8h3v-10q18 -9 31.5 -23.5t21.5 -33t8 -39.5v-122q0 -44 -31.5 -75t-75.5 -31zM953 472q0 -19 -13 -32
t-32 -13q-13 0 -23.5 6t-16.5 16.5t-6 22.5v1q-40 89 -122 143t-182 54q-91 0 -168.5 -45t-122 -122t-44.5 -168v-10q27 -13 44 -39t17 -57v-122q0 -44 -31.5 -75t-75.5 -31t-75 31t-31 75v122q0 21 7.5 39.5t21.5 33t32 23.5v25q0 112 55 206.5t149.5 149.5t205.5 55h31
q135 0 242 -79t148 -204l-11 -1q0 -1 0.5 -2.5t0.5 -2.5zM664 -60h31q9 -1 18 -4l80 46q9 5 22 -3t22 -24q3 -5 5 -9.5t3.5 -9t2 -9t0 -8t-1.5 -7t-3 -6t-4 -3.5l-104 -60q-13 -25 -40 -25h-31q-19 0 -32 13.5t-13 32.5v30q0 9 3.5 17.5t9.5 14.5t14.5 10t17.5 4z" />
    <glyph glyph-name="uniE614" unicode="&#xe614;" 
d="M949 -138q-10 -9 -25.5 -12t-24.5 4l-230 229q-95 -76 -228 -76q-44 0 -86 9.5t-79 28t-69.5 43.5t-58.5 57t-44.5 68.5t-28 78t-9.5 84.5q0 75 29.5 143.5t79.5 118t119.5 78.5t146 29t146 -29t119.5 -78.5t80 -118t30 -143.5q0 -48 -10 -90t-30 -79.5t-50 -70.5
l227 -229q8 -9 6 -22.5t-10 -22.5zM441 688q-87 0 -160 -41.5t-115.5 -113.5t-42.5 -157q0 -129 93 -220.5t225 -91.5q86 0 159 41.5t115.5 113.5t42.5 157q0 129 -93 220.5t-224 91.5z" />
    <glyph glyph-name="uniE615" unicode="&#xe615;" 
d="M314 335l121 -235q4 10 12 27.5t34.5 70.5t56 103.5t75.5 117.5t93.5 122.5t110.5 109t126 86.5q-2 -24 -8 -80.5t-7.5 -86.5t5.5 -77t25 -90q-33 -7 -78.5 -38.5t-93.5 -77t-98.5 -102t-95.5 -113.5t-82 -111t-60 -96q-47 59 -99 111.5t-102 93.5t-97.5 70t-87.5 44z
" />
    <glyph glyph-name="uniE616" unicode="&#xe616;" 
d="M790 500h-23v-582h-77v582h-127v-582h-76v582h-128v-582h-76v582h-49h-104v-608q0 -42 30.5 -72t73.5 -30h556q43 0 73.5 30t30.5 72v608q0 1 -12 1t-41 -0.5t-51 -0.5zM944 682h-228v62q0 13 -10.5 25.5t-26.5 21t-33.5 14t-31.5 5.5h-204q-31 0 -66.5 -20.5
t-35.5 -45.5v-62h-228q-22 0 -37 -15t-15 -36t15 -36t37 -15h864q14 0 26 7t19 18.5t7 25.5q0 21 -15 36t-37 15zM614 682h-204v26h204v-26zM614 682z" />
    <glyph glyph-name="uniE617" unicode="&#xe617;" 
d="M931 244q0 -106 -56 -195t-152.5 -141t-210 -52t-209.5 52t-152 141t-56 195q0 60 19 117t54.5 103.5t83 82.5t106.5 57.5t123 26.5v1v60h-129q-13 0 -22.5 8.5t-9.5 21t9.5 21t22.5 8.5h322q13 0 22.5 -8.5t9.5 -21t-9.5 -21t-22.5 -8.5h-129v-60v-1q79 -6 150.5 -38.5
t123 -84t82 -120.5t30.5 -144zM513 572q-96 0 -177.5 -44t-129 -119.5t-47.5 -164.5t47.5 -165t129 -120t177.5 -44t177.5 44t129 120t47.5 165t-47.5 164.5t-129 119.5t-177.5 44zM513 154q-26 0 -48.5 12t-35.5 32.5t-13 45.5q0 29 18 52t47 32v155q0 12 9 21t22.5 9
t23 -9t9.5 -21v-155q28 -9 46 -32t18 -52q0 -37 -28 -63.5t-68 -26.5z" />
    <glyph glyph-name="uniE618" unicode="&#xe618;" 
d="M777 152q17 -79 31 -144q6 -27 11 -54q1 -9 3 -17.5t3.5 -16.5t2.5 -15q5 -23 8 -38q3 -16 4 -20q3 -20 -9 -26.5t-27 -6.5q-3 0 -6.5 1t-8.5 3q-10 3 -15 5l-262 153q-72 -42 -130 -75q-25 -14 -49.5 -28t-45.5 -27q-2 -1 -4 -2.5t-4 -2.5t-4.5 -2t-4 -2.5t-3.5 -2.5
l-4 -2q-2 -1 -3.5 -2t-3.5 -2t-3 -2q-5 -2 -9 -4t-6.5 -3.5t-4.5 -2.5q-3 -1 -6.5 -2t-7 -1.5t-7.5 0.5q-5 0 -10 2t-9 5t-7 7t-5 8q-4 8 -2 17l5 20q2 8 4 17t4.5 20t5.5 23t6 25q7 26 14 53q15 63 34 141q-59 52 -107 92q-21 18 -39 34q-20 16 -35.5 29.5t-25.5 22.5
q-4 3 -6 5l-3 3l-2 1q-12 12 -20.5 25.5t-6.5 27.5q1 7 3.5 12.5t7 9.5t9.5 6.5t11 3.5l311 28l115 270q6 16 18 28q3 3 7.5 6t10 4t12.5 1q10 0 17.5 -4.5t12.5 -10.5q2 -3 4.5 -6t3.5 -6q4 -6 6 -10l113 -270l311 -29q3 -1 5.5 -1.5t5 -1.5t4.5 -2t4 -1.5t3 -1.5l4 -2
l2 -2q8 -7 8 -22q0 -14 -9 -25q-4 -5 -9.5 -11.5t-11.5 -14.5zM777 152z" />
    <glyph glyph-name="uniE619" unicode="&#xe619;" 
d="M583 500h378v-142h-378v142zM299 730q-13 6 -29.5 7.5t-31.5 -2t-29.5 -11t-25.5 -19t-18 -25.5q-10 -25 -8.5 -51t18 -51t43.5 -38t81.5 -25.5t108.5 -12.5t64 22q7 13 -4.5 37t-33 49.5t-47.5 50.5t-49.5 43.5t-38.5 25.5v0zM238 593q-17 8 -23.5 25.5t1.5 35.5
q8 17 27 20t36 -6q26 -12 70.5 -50t37.5 -54q-5 -12 -38 -5.5t-64 16.5t-47 18v0zM583 311h331v-473h-331v473zM63 500h378v-142h-378v142zM110 311h331v-473h-331v473zM859 680q-17 36 -58 51t-76 -1q-26 -13 -70.5 -52.5t-79 -86t-23.5 -67.5q8 -17 42 -21t75.5 2.5
t79.5 16t57 18.5q40 19 55.5 62.5t-2.5 77.5v0zM786 593q-31 -15 -86.5 -29.5t-62.5 0.5q-7 16 37.5 54t70.5 50q12 6 24 7t23 -4.5t16 -16.5q8 -18 1.5 -35.5t-23.5 -25.5v0z" />
    <glyph glyph-name="uniE61A" unicode="&#xe61a;" 
d="M568 -90h-112q-106 0 -196.5 50.5t-143 137.5t-52.5 190t52.5 190t143 137.5t196.5 50.5h112q80 0 152.5 -30t124.5 -80.5t83.5 -120.5t31.5 -147q0 -103 -52.5 -190t-143 -137.5t-196.5 -50.5zM577 609h-130q-89 0 -164 -43t-119 -117t-44 -161t44 -161t119 -117
t164 -43h130q89 0 164 43t119 117t44 161t-44 161t-119 117t-164 43zM708 234q-23 0 -39.5 16t-16.5 38q0 11 4.5 21t12 17t17.5 11.5t21.5 4.5t22 -4.5t18 -11.5t12 -17t4.5 -21q0 -34 -32 -48q-11 -6 -24 -6zM512 234q-23 0 -39.5 16t-16.5 38t16.5 38t39.5 16
q9 0 17.5 -2.5t15.5 -7.5t12 -12t8 -15t3 -17q0 -11 -4.5 -21t-12 -17t-18 -11.5t-21.5 -4.5zM316 234q-23 0 -39.5 16t-16.5 38t16.5 38t39.5 16t39.5 -16t16.5 -38t-16.5 -38t-39.5 -16z" />
    <glyph glyph-name="uniE61B" unicode="&#xe61b;" 
d="M878 626h-732q-35 0 -59.5 -25t-24.5 -60v-506q0 -35 24.5 -60t59.5 -25h732q35 0 59.5 25t24.5 60v506q0 35 -24.5 60t-59.5 25zM175 569h674q13 0 25 -5l-362 -362l-362 362q4 1 8 2.5t8 2t9 0.5zM906 63q0 -23 -16.5 -39.5t-40.5 -16.5h-674q-24 0 -40.5 16.5
t-16.5 39.5v450v3l224 -224l-164 -164q-8 -8 -8 -19.5t8 -19.5q16 -17 35 -4q3 2 5 4l163 164l111 -111q8 -8 20 -8q5 0 10.5 2t9.5 6l108 108l162 -163q4 -4 9.5 -6t10.5 -2t10.5 2t9.5 6q8 8 8 20t-8 20l-163 162l227 227v-3v-450z" />
    <glyph glyph-name="uniE61C" unicode="&#xe61c;" 
d="M719 -157h-416q-46 0 -78.5 32.5t-32.5 79.5v671q0 46 32.5 79t78.5 33h416q46 0 78.5 -33t32.5 -79v-671q0 -47 -32.5 -79.5t-78.5 -32.5zM775 626q0 23 -16.5 39.5t-39.5 16.5h-416q-23 0 -39 -16.5t-16 -39.5v-28h527v28zM775 542h-527v-447h527v447zM775 39h-527v-84
q0 -16 7 -28.5t20 -20t28 -7.5h416q23 0 39.5 16t16.5 40v84zM511 -73q-11 0 -20.5 5.5t-15.5 15t-6 21.5q0 17 12.5 29.5t29.5 12.5t29.5 -12.5t12.5 -29.5q0 -12 -5.5 -21.5t-15.5 -15t-21 -5.5z" />
    <glyph glyph-name="uniE61D" unicode="&#xe61d;" 
d="M512 718q-60 0 -117.5 -14t-106 -39t-89.5 -60t-69.5 -77.5t-44.5 -92t-16 -101.5q0 -93 47.5 -173.5t129.5 -133.5v-169q107 71 160 103q52 -11 106 -11q120 0 222 51.5t161.5 139.5t59.5 193q0 78 -35 149t-94.5 122.5t-141.5 82t-172 30.5zM299.5 275
q-24.5 0 -41.5 17t-17 41.5t17 41.5t42 17q12 0 22.5 -4.5t18.5 -12.5t13 -18.5t5 -22.5q0 -25 -17.5 -42t-42 -17zM521 275q-16 0 -29.5 8t-21.5 21.5t-8 29.5q0 24 17.5 41t41.5 17t41.5 -17t17.5 -41q0 -16 -8 -29.5t-21.5 -21.5t-29.5 -8zM742 275q-16 0 -29.5 8
t-21.5 21.5t-8 29.5t8 29.5t21.5 21t29.5 7.5t30 -7.5t21.5 -21t7.5 -29.5q0 -12 -4.5 -23t-12.5 -19t-19 -12.5t-23 -4.5z" />
    <glyph glyph-name="uniE61E" unicode="&#xe61e;" 
d="M809 348h-563v58q0 109 78 187.5t188 78.5t188 -78t78 -188h61q0 88 -44 163.5t-119 119.5t-164 44q-53 0 -103 -16.5t-90.5 -47t-70.5 -70.5t-46.5 -90t-16.5 -103v-64q-18 -6 -32 -19t-22 -30.5t-8 -36.5v-226q0 -25 12.5 -46t33.5 -33.5t46 -12.5h594q38 0 65 27
t27 65v226q0 38 -27 65t-65 27zM839 30q0 -12 -9 -21t-21 -9h-594q-6 0 -11.5 2.5t-10 6.5t-6.5 9.5t-2 11.5v226q0 8 4 15t11 11t15 4h594q8 0 15 -4t11 -11t4 -15v-226z" />
    <glyph glyph-name="uniE61F" unicode="&#xe61f;" 
d="M892 -39q-16 40 -38 76.5t-51 67.5q-57 63 -132 98l-14 6l-14 6q32 18 58 45q81 80 81 193t-80.5 193t-193.5 80t-193 -80t-80 -193t80 -193q13 -14 28 -25t31 -20q-7 -3 -14.5 -6t-14.5 -6q-37 -17 -70 -42t-62 -56q-61 -68 -88 -144q-5 -13 -8 -26.5t-4.5 -27.5t-2 -22
t-0.5 -21v-15h64q-1 56 24.5 114t68.5 105t107 77t134 30q56 0 109.5 -20t94.5 -53.5t72.5 -75.5t48 -88t16.5 -89h64v8q0 21 -1 31.5t-6 28.5t-14 44zM299 453q0 86 61.5 147.5t147.5 61.5q43 0 81.5 -16.5t66.5 -44.5t44.5 -67t16.5 -81q0 -86 -61 -147.5t-147.5 -61.5
t-148 61.5t-61.5 147.5zM299 453z" />
    <glyph glyph-name="uniE620" unicode="&#xe620;" 
d="M310 -21l-40 55l376 273l-367 280l41 53l443 -337z" />
    <glyph glyph-name="uniE621" unicode="&#xe621;" 
d="M916 356q-45 0 -102 14.5t-78 35.5q-5 5 -9.5 11.5t-7 12t-4.5 13t-3 11.5t-2 12l-4 18q-2 6 -5 10t-8 6q-17 8 -38 13.5t-44.5 9.5t-48.5 6t-51 2q-108 0 -180 -30q-7 -3 -10 -10t-7 -24l-2 -11q0 -3 -1.5 -9t-3.5 -10.5t-4.5 -10t-6 -10.5t-8.5 -10q-20 -20 -78 -35
q-13 -3 -26 -5.5t-26 -4.5t-25.5 -2.5t-23.5 -0.5q-50 0 -70 19q-32 32 -35 75q-4 52 35 91q79 79 209 121q60 19 126.5 29.5t135.5 10.5t136.5 -10.5t127.5 -30.5q131 -42 211 -122q26 -26 32.5 -57.5t-2.5 -59t-30 -48.5q-6 -7 -16 -11t-23 -6.5t-30 -2.5zM511 583
q16 0 32.5 -1t32 -2.5t30.5 -3.5t29.5 -5t28 -6.5t26 -8t23.5 -9.5q10 -4 18.5 -11t13 -13.5t8 -16.5t4.5 -15.5t3 -14.5q2 -10 3 -14.5t3.5 -10.5t5.5 -9q11 -10 57.5 -22t86.5 -12q11 0 19.5 1t10.5 2t4 1q3 4 6.5 8.5t6.5 11t4.5 12.5t2 14t-1.5 15.5t-7 15.5t-12 16
q-70 69 -186 108t-253 39q-136 0 -251.5 -38.5t-183.5 -107.5q-22 -22 -20 -49q2 -25 20 -43q8 -5 34 -5q16 0 35 2t36 6t32 8.5t25.5 9t14.5 8.5q3 3 5.5 9t3.5 10l3 14q2 12 4 19.5t7 19t14 19.5t22 14q81 35 200 35zM845 -110h-666q-53 0 -89 38t-33 92q1 11 3.5 30.5
t19 69t42.5 91.5q53 84 137 132q106 59 253 59q73 0 136.5 -14.5t116.5 -44.5q85 -48 137 -132q12 -19 22 -40t16.5 -38.5t11.5 -35t8 -30t4.5 -24.5t2 -16.5t0.5 -6.5q1 -26 -7.5 -49.5t-25.5 -42.5q-36 -38 -89 -38zM512 351q-241 0 -346 -165q-23 -37 -37.5 -81.5
t-17 -61.5t-3.5 -26q-2 -31 19 -53t52 -22h666q10 0 19.5 2.5t17.5 7.5t15 12q21 22 19 53q-1 9 -3 26t-17 61.5t-38 81.5q-105 165 -346 165zM512 -7q-64 0 -109 45t-45 108.5t45 108.5t109 45q16 0 31 -3t28.5 -9t26 -14.5t23 -18.5t19 -22.5t14 -26t9 -29t3.5 -31.5
q0 -63 -45 -108t-109 -45zM512 249q-28 0 -51.5 -14t-37 -37.5t-13.5 -51.5q0 -42 30 -72t72 -30t72 30t30 72q0 28 -13.5 51.5t-37 37.5t-51.5 14z" />
    <glyph glyph-name="uniE622" unicode="&#xe622;" 
d="M125 503h183v182h-183v-182zM419 503h182v182h-182v-182zM712 685v-182h182v182h-182zM125 210h183v182h-183v-182zM419 210h182v182h-182v-182zM712 210h182v182h-182v-182zM125 -83h183v182h-183v-182zM419 -83h182v182h-182v-182zM712 -83h182v182h-182v-182z" />
  </font>
</defs>
</svg>
